<?xml version="1.0" standalone="no"?>
<!DOCTYPE svg PUBLIC "-//W3C//DTD SVG 20010904//EN"
 "http://www.w3.org/TR/2001/REC-SVG-20010904/DTD/svg10.dtd">
<svg version="1.0" xmlns="http://www.w3.org/2000/svg"
 width="48.000000pt" height="48.000000pt" viewBox="0 0 48.000000 48.000000"
 preserveAspectRatio="xMidYMid meet">

<g transform="translate(0.000000,48.000000) scale(0.100000,-0.100000)"
fill="#000000" stroke="none">
<path d="M194 359 c-29 -14 -51 -56 -59 -111 -6 -42 -5 -48 19 -63 l26 -17
-30 -35 c-16 -18 -30 -38 -30 -43 0 -20 66 -44 120 -44 54 0 120 24 120 44 0
5 -13 25 -30 43 l-29 34 25 24 c22 20 24 29 19 64 -9 52 -27 80 -66 99 -36 18
-55 19 -85 5z m106 -112 c0 -17 -7 -39 -17 -49 -35 -39 -103 -11 -103 43 0 22
9 32 43 52 42 24 42 24 60 5 9 -11 17 -34 17 -51z m-45 -97 c8 7 15 8 15 2 0
-5 -7 -15 -15 -22 -12 -10 -18 -10 -30 0 -8 7 -15 17 -15 22 0 6 7 5 15 -2 12
-10 18 -10 30 0z"/>
<path d="M200 260 c0 -5 5 -10 10 -10 6 0 10 5 10 10 0 6 -4 10 -10 10 -5 0
-10 -4 -10 -10z"/>
<path d="M260 260 c0 -5 5 -10 10 -10 6 0 10 5 10 10 0 6 -4 10 -10 10 -5 0
-10 -4 -10 -10z"/>
</g>
</svg>
